<?xml version="1.0" standalone="no"?>
<svg viewBox="0 0 200 200" xmlns="http://www.w3.org/2000/svg">
  <path fill="#FF0066" d="M34,-59.9C42.5,-54,46.7,-41.7,50.7,-30.6C54.8,-19.6,58.8,-9.8,60.6,1C62.4,11.8,61.9,23.7,57.4,34C52.9,44.3,44.3,53,34,62C23.8,70.9,11.9,80.1,1.7,77.1C-8.5,74.2,-17,59.2,-26.4,49.8C-35.9,40.4,-46.2,36.5,-57.8,29.1C-69.5,21.7,-82.4,10.9,-85.2,-1.6C-88.1,-14.1,-80.7,-28.2,-69.5,-36.3C-58.3,-44.5,-43.2,-46.5,-30.9,-50.3C-18.7,-54,-9.4,-59.4,1.7,-62.3C12.8,-65.3,25.5,-65.8,34,-59.9Z" transform="translate(100 100)" />
</svg>
